<svg width="35" height="35" viewBox="0 0 35 35" fill="none" xmlns="http://www.w3.org/2000/svg">
<circle cx="17.5" cy="17.5" r="17.5" fill="#72B4F0"/>
<g clip-path="url(#clip0_2045:2198)">
<path d="M23.2246 20.5058L22.558 21.1723L23.0865 21.7008H20.0468C20.6349 21.2718 21.1688 20.7022 21.6285 20.0036C23.6228 16.9728 23.3344 13.0067 23.3626 12.7458H17.7068V10.8044L18.2353 11.3329L18.9018 10.6664L17.2355 9L15.5691 10.6664L16.2357 11.3329L16.7642 10.8044V12.7458H11.1084V13.2171C11.1084 15.9327 11.708 18.2794 12.8425 20.0036C13.859 21.5484 15.2378 22.4633 16.7642 22.6194V25H17.7068V22.6435H23.0865L22.558 23.172L23.2246 23.8385L24.8909 22.1721L23.2246 20.5058ZM22.4132 13.6884C22.286 18.1031 20.371 21.3295 17.7068 21.6703V19.8155H18.6495V18.8729H17.7068V17.9303H18.6495V16.9876H17.7068V16.045H18.6495V15.1024H17.7068V13.6884H22.4132ZM12.0578 13.6884H16.7642V15.1024H15.8216V16.045H16.7642V16.9876H15.8216V17.9303H16.7642V18.8729H15.8216V19.8155H16.7642V21.6703C14.1 21.3295 12.185 18.1031 12.0578 13.6884Z" fill="white"/>
<path d="M13.1322 22.5291L12.6323 23.029L12.1324 22.5291L11.4658 23.1956L11.9657 23.6955L11.4658 24.1954L12.1324 24.8619L12.6323 24.362L13.1322 24.8619L13.7987 24.1954L13.2988 23.6955L13.7987 23.1956L13.1322 22.5291Z" fill="white"/>
<path d="M12.0507 11.8031H12.9933V10.5844L13.7979 9.77982L13.1314 9.11328L12.522 9.72263L11.9126 9.11328L11.2461 9.77982L12.0507 10.5844V11.8031Z" fill="white"/>
</g>
<defs>
<clipPath id="clip0_2045:2198">
<rect width="16" height="16" fill="white" transform="translate(10 9)"/>
</clipPath>
</defs>
</svg>
