<svg width="35" height="35" viewBox="0 0 35 35" fill="none" xmlns="http://www.w3.org/2000/svg">
<circle cx="17.5" cy="17.5" r="17.5" fill="#6116FF"/>
<g clip-path="url(#clip0_1995:20473)">
<path d="M18.5083 11.3923C19.0651 11.3923 19.5165 10.9409 19.5165 10.384C19.5165 9.82715 19.0651 9.37573 18.5083 9.37573C17.9514 9.37573 17.5 9.82715 17.5 10.384C17.5 10.9409 17.9514 11.3923 18.5083 11.3923Z" fill="white"/>
<path d="M20.5248 9.98311C20.9703 9.98311 21.3315 9.62192 21.3315 9.17637C21.3315 8.73082 20.9703 8.36963 20.5248 8.36963C20.0792 8.36963 19.718 8.73082 19.718 9.17637C19.718 9.62192 20.0792 9.98311 20.5248 9.98311Z" fill="white"/>
<path d="M23.9128 22.1336L19.7178 15.426V13.4116H20.9279V12H14.0709V13.4116H15.281V15.426L11.086 22.1336C10.9322 22.4187 10.8443 22.7447 10.8443 23.0919C10.8443 24.2056 11.7471 25.1088 12.8611 25.1088H22.138C23.2518 25.1088 24.1549 24.206 24.1549 23.0919C24.1549 22.7447 24.0669 22.4187 23.9128 22.1336ZM14.2974 19.6609L16.6927 15.8309V13.4113H18.3062V15.8309L20.7014 19.6609H14.2974Z" fill="white"/>
</g>
<defs>
<clipPath id="clip0_1995:20473">
<rect width="16.7391" height="16.7391" fill="white" transform="translate(9.13037 8.36963)"/>
</clipPath>
</defs>
</svg>
