<svg width="35" height="35" viewBox="0 0 35 35" fill="none" xmlns="http://www.w3.org/2000/svg">
<circle cx="17.5" cy="17.5" r="17.5" fill="#666CEE"/>
<g clip-path="url(#clip0_2045:20292)">
<path d="M28.0718 11.9168C28.0682 11.8737 28.0654 11.8307 28.048 11.7885C28.0434 11.7775 28.0342 11.7702 28.0287 11.7592C28.0168 11.7363 28.0031 11.717 27.9875 11.6959C27.9563 11.6528 27.9215 11.6171 27.8793 11.5878C27.8683 11.5804 27.8637 11.5667 27.8518 11.5603L18.2272 6.06049C18.0861 5.97984 17.9137 5.97984 17.7726 6.06049L8.14798 11.5603C8.13698 11.5676 8.13239 11.5804 8.12139 11.5878C8.07739 11.618 8.03979 11.6547 8.00774 11.7005C7.99489 11.7189 7.98209 11.7354 7.97199 11.7555C7.96559 11.7674 7.95549 11.7757 7.94999 11.7885C7.92984 11.8389 7.92339 11.8912 7.92159 11.9425C7.92159 11.948 7.91699 11.9535 7.91699 11.959V11.9663C7.91699 11.9672 7.91699 11.9672 7.91699 11.9682V22.0355C7.91699 22.0364 7.91699 22.0383 7.91699 22.0392V22.0419C7.91699 22.0511 7.92339 22.0593 7.92434 22.0685C7.92799 22.1327 7.93809 22.1969 7.96924 22.2555C7.97109 22.2592 7.97474 22.2601 7.97659 22.2638C7.98849 22.2849 8.00959 22.2986 8.02518 22.3179C8.05908 22.36 8.09208 22.4013 8.13703 22.4297C8.14162 22.4325 8.14343 22.438 8.14712 22.4398L17.7717 27.9396C17.8432 27.9799 17.9211 28.0001 18 28.0001C18.0788 28.0001 18.1567 27.9799 18.2273 27.9396L27.8519 22.4398C27.8565 22.4371 27.8583 22.4316 27.8629 22.4288C27.9051 22.4032 27.9344 22.3647 27.9665 22.3262C27.9849 22.3042 28.0096 22.2877 28.0234 22.2629C28.0252 22.2602 28.0279 22.2583 28.0298 22.2556C28.0545 22.2079 28.0591 22.1557 28.0664 22.1043C28.0692 22.0832 28.0829 22.064 28.0829 22.042V11.959C28.0828 11.9443 28.0728 11.9315 28.0718 11.9168ZM26.5722 11.8857L23.21 13.2303L19.5124 7.85157L26.5722 11.8857ZM17.9999 7.26769L22.1706 13.3339H13.8292L17.9999 7.26769ZM16.4847 7.85251L12.788 13.2304L9.42668 11.8857L16.4847 7.85251ZM8.83361 12.6355L12.304 14.0242L8.83361 20.2719V12.6355ZM12.9566 14.7391L17.1814 22.4205L9.11594 21.6524L12.9566 14.7391ZM17.5416 26.7515L10.4469 22.6982L17.5416 23.3673V26.7515ZM17.9999 22.0071L13.7339 14.2506H22.2659L17.9999 22.0071ZM18.4582 26.7515V23.3756L25.5493 22.7L18.4582 26.7515ZM18.8157 22.4287L23.0441 14.7419L26.8839 21.6533L18.8157 22.4287ZM27.1662 20.2738L23.694 14.0242L27.1662 12.6355V20.2738Z" fill="white"/>
</g>
<defs>
<clipPath id="clip0_2045:20292">
<rect width="22" height="22" fill="white" transform="translate(7 6)"/>
</clipPath>
</defs>
</svg>
