<svg width="35" height="35" viewBox="0 0 35 35" fill="none" xmlns="http://www.w3.org/2000/svg">
<circle cx="17.5" cy="17.5" r="17.5" fill="#6281EC"/>
<g clip-path="url(#clip0_1995:1698)">
<path d="M22.5789 12.6948C22.5789 13.5604 23.2832 14.2646 24.1487 14.2646C24.7253 14.2646 25.2299 13.9519 25.5029 13.4874H25.5029C25.6397 13.2546 25.7185 12.9838 25.7185 12.6948C25.7185 12.5903 25.708 12.4881 25.6885 12.3893H25.6884C25.5458 11.6695 24.9098 11.125 24.1487 11.125C23.2832 11.125 22.5789 11.8292 22.5789 12.6948Z" fill="white"/>
<path d="M18.7113 15.8655C17.8099 15.8655 17.0766 16.5988 17.0766 17.5001C17.0766 18.4015 17.81 19.1348 18.7113 19.1348C19.6126 19.1348 20.3459 18.4015 20.3459 17.5001C20.3459 16.5988 19.6126 15.8655 18.7113 15.8655Z" fill="white"/>
<path d="M26.7874 19.8787C26.5471 19.2949 26.1135 18.6636 25.4989 18.0024C25.3432 17.835 25.1775 17.6674 25.0026 17.5C25.1775 17.3327 25.3432 17.1651 25.4989 16.9977C26.1135 16.3365 26.5471 15.7052 26.7874 15.1214C27.1443 14.2546 27.0001 13.6502 26.8162 13.2958C26.7965 13.2577 26.774 13.2205 26.7503 13.1837C26.6273 13.8397 26.262 14.4111 25.7506 14.8009C25.4975 15.3557 24.9772 16.0422 24.1943 16.783C23.6046 16.2957 22.9433 15.8178 22.2285 15.3622C22.1992 15.0334 22.163 14.7103 22.1203 14.3941C22.0012 13.51 21.8308 12.6802 21.6133 11.9331C21.5438 11.6946 21.4697 11.4642 21.3907 11.2434C21.0868 10.3934 20.7261 9.71794 20.3185 9.23574C19.7134 8.51991 19.1105 8.36963 18.7113 8.36963C18.3122 8.36963 17.7093 8.51991 17.1041 9.23581C16.6965 9.71798 16.3358 10.3935 16.0319 11.2435C15.8939 11.6294 15.7704 12.0443 15.6616 12.4825C15.2225 12.3772 14.7974 12.2959 14.3913 12.2407C13.4968 12.119 12.7311 12.1282 12.1154 12.268C11.2012 12.4755 10.7902 12.9415 10.6064 13.2959C10.4226 13.6502 10.2784 14.2546 10.6353 15.1214C10.8756 15.7052 11.3091 16.3365 11.9237 16.9977C12.0718 17.1569 12.2289 17.3163 12.3944 17.4754C11.912 17.9308 11.5141 18.379 11.206 18.8116C11.6092 18.8299 11.9889 18.9388 12.3258 19.1183C12.5684 18.8212 12.8623 18.5114 13.2025 18.1954C13.7987 18.6902 14.4688 19.1756 15.1942 19.6378C15.2508 20.2731 15.3326 20.8874 15.4382 21.4712C14.7956 21.6265 14.2174 21.7176 13.7153 21.7529C13.6706 22.1516 13.5371 22.5237 13.335 22.849C14.0245 22.8417 14.8115 22.732 15.6638 22.5263C15.772 22.9613 15.8948 23.3732 16.0319 23.7565C16.3358 24.6066 16.6966 25.282 17.1042 25.7642C17.7093 26.4801 18.3122 26.6304 18.7114 26.6304C18.7687 26.6304 18.8247 26.6273 18.8802 26.6226C18.3569 26.2312 17.9833 25.6507 17.8599 24.9836C17.4325 24.4339 17.0135 23.4996 16.7007 22.2388C17.3487 22.0369 18.0238 21.7867 18.7139 21.491C19.0885 21.6505 19.4608 21.7975 19.8285 21.931C20.7048 22.249 21.5553 22.4909 22.349 22.6458C22.5816 22.6912 22.8093 22.7292 23.0313 22.7593C23.4473 22.8159 23.8354 22.8442 24.1936 22.8442C24.6055 22.8442 24.9779 22.8068 25.3073 22.732C26.2214 22.5244 26.6324 22.0584 26.8162 21.7041C27 21.3498 27.1443 20.7455 26.7874 19.8787ZM23.3723 17.5C23.0485 17.7621 22.6944 18.0275 22.31 18.2933C22.3178 18.0323 22.3219 17.7679 22.3219 17.5C22.3219 17.2334 22.3174 16.9687 22.309 16.7061C22.6939 16.9722 23.0482 17.2379 23.3723 17.5ZM18.7122 20.3149C18.3323 20.1432 17.9429 19.9548 17.5451 19.7484C17.0785 19.5064 16.6389 19.2598 16.2256 19.011C16.195 18.5295 16.1785 18.0256 16.1785 17.5001C16.1785 16.9732 16.1952 16.4681 16.2258 15.9855C16.6478 15.7339 17.0885 15.4886 17.5451 15.2517C17.9304 15.0519 18.3202 14.8625 18.7097 14.6851C19.0899 14.857 19.4794 15.0452 19.8776 15.2517C20.3441 15.4937 20.7837 15.7404 21.1971 15.9892C21.2276 16.4707 21.2441 16.9746 21.2441 17.5001C21.2441 18.018 21.229 18.5219 21.1993 19.0096C20.7853 19.2589 20.3449 19.506 19.8776 19.7484C19.4798 19.9547 19.091 20.1432 18.7122 20.3149ZM16.3501 14.6705C16.3874 14.3777 16.4301 14.0957 16.4775 13.8248C16.7657 13.9156 17.0634 14.0178 17.3694 14.1318C17.2622 14.1855 17.1553 14.2398 17.0488 14.295C16.8118 14.4179 16.5789 14.5432 16.3501 14.6705ZM20.3739 14.295C20.2628 14.2374 20.1517 14.181 20.0405 14.1254C20.3454 14.0079 20.6464 13.8994 20.941 13.8008C20.9902 14.0794 21.0344 14.37 21.0728 14.672C20.8435 14.5436 20.6105 14.4177 20.3739 14.295ZM18.7113 9.44742C19.3704 9.44742 20.1915 10.6372 20.7169 12.7411C20.0673 12.9541 19.389 13.2126 18.7063 13.508C18.0252 13.2179 17.3515 12.9695 16.6991 12.7678C17.2241 10.6472 18.0495 9.44742 18.7113 9.44742ZM11.5631 13.7922C11.7451 13.4412 12.3337 13.2357 13.231 13.2357C13.8361 13.2357 14.5816 13.3294 15.4371 13.535C15.3325 14.1141 15.2513 14.7232 15.195 15.353C14.4686 15.8092 13.8011 16.2835 13.2089 16.7645C11.8403 15.4637 11.2828 14.3327 11.5631 13.7922ZM14.0323 17.4855C14.369 17.2184 14.7305 16.9534 15.114 16.6927C15.1053 16.9597 15.1007 17.2289 15.1007 17.5C15.1007 17.7667 15.1052 18.0314 15.1136 18.294C14.7216 18.023 14.3613 17.7524 14.0323 17.4855ZM16.4782 21.1795C16.4304 20.9069 16.3874 20.623 16.3499 20.3281C16.5791 20.4565 16.8121 20.5824 17.0488 20.7051C17.1567 20.7611 17.2647 20.8159 17.3727 20.87C17.0654 20.985 16.767 21.088 16.4782 21.1795ZM20.3739 20.7051C20.6127 20.5813 20.8476 20.4543 21.0789 20.3248C21.0425 20.6169 21.0002 20.9013 20.9521 21.1775C20.6616 21.0861 20.3617 20.9832 20.0532 20.8684C20.1599 20.8148 20.2668 20.7607 20.3739 20.7051ZM25.8595 21.208C25.5552 21.7947 24.1139 21.9752 21.9947 21.4676C22.0992 20.888 22.1791 20.2752 22.2339 19.6345C22.9466 19.18 23.6061 18.7032 24.1944 18.2171C25.5772 19.5257 26.1412 20.6649 25.8595 21.208Z" fill="white"/>
<path d="M12.6546 21.456C12.6546 20.5904 11.9503 19.8862 11.0848 19.8862C10.2192 19.8862 9.51501 20.5904 9.51501 21.456C9.51501 22.3216 10.2192 23.0258 11.0848 23.0258C11.9503 23.0258 12.6546 22.3216 12.6546 21.456Z" fill="white"/>
<path d="M22.0324 24.5014C22.0324 24.0478 21.8388 23.6387 21.5301 23.3518V23.3518C21.2657 23.1062 20.9171 22.9504 20.5328 22.9334C20.5095 22.9324 20.4862 22.9316 20.4627 22.9316C19.5971 22.9316 18.8929 23.6358 18.8929 24.5014C18.8929 25.367 19.5971 26.0712 20.4627 26.0712C21.3282 26.0712 22.0324 25.367 22.0324 24.5014Z" fill="white"/>
</g>
<defs>
<clipPath id="clip0_1995:1698">
<rect width="18.2609" height="18.2609" fill="white" transform="translate(9.13041 8.36963)"/>
</clipPath>
</defs>
</svg>
