<svg width="35" height="35" viewBox="0 0 35 35" fill="none" xmlns="http://www.w3.org/2000/svg">
<circle cx="17.5" cy="17.5" r="17.5" fill="#AD8A69"/>
<g clip-path="url(#clip0_1995:3476)">
<path d="M12.5517 11.9001C12.5513 11.9001 12.5509 11.9001 12.5505 11.9001C12.4156 11.9001 12.2888 11.9479 12.193 12.0348C12.0962 12.1226 12.0428 12.2395 12.0428 12.364V19.3197C12.0428 19.5748 12.272 19.7828 12.5537 19.7835C13.7414 19.7861 15.7313 20.0111 17.104 21.3171V14.0377C17.104 13.9512 17.0797 13.87 17.0339 13.8028C15.9072 12.1533 13.7421 11.9027 12.5517 11.9001Z" fill="white"/>
<path d="M22.9574 19.3198V12.364C22.9574 12.2395 22.9041 12.1226 22.8072 12.0348C22.7114 11.9479 22.5845 11.9001 22.4498 11.9001C22.4493 11.9001 22.4489 11.9001 22.4485 11.9001C21.2582 11.9027 19.0931 12.1533 17.9664 13.8028C17.9205 13.87 17.8963 13.9513 17.8963 14.0377V21.3171C19.269 20.0111 21.2589 19.7861 22.4466 19.7835C22.7282 19.7828 22.9574 19.5748 22.9574 19.3198Z" fill="white"/>
<path d="M24.1195 13.5042H23.7495V19.3197C23.7495 19.9709 23.1658 20.5019 22.4484 20.5036C21.4409 20.5057 19.7799 20.6848 18.6034 21.697C20.6381 21.2442 22.7829 21.5386 24.0053 21.7918C24.1579 21.8234 24.3156 21.7907 24.4379 21.7021C24.5597 21.6138 24.6296 21.4816 24.6296 21.3398V13.9679C24.6297 13.7122 24.4008 13.5042 24.1195 13.5042Z" fill="white"/>
<path d="M11.2505 19.3197V13.5042H10.8806C10.5993 13.5042 10.3704 13.7122 10.3704 13.9679V21.3397C10.3704 21.4815 10.4403 21.6136 10.5622 21.702C10.6844 21.7906 10.8419 21.8233 10.9948 21.7917C12.2172 21.5384 14.3621 21.244 16.3966 21.6969C15.2202 20.6847 13.5591 20.5057 12.5517 20.5035C11.8343 20.5019 11.2505 19.9709 11.2505 19.3197Z" fill="white"/>
</g>
<defs>
<clipPath id="clip0_1995:3476">
<rect width="14.2593" height="12.963" fill="white" transform="translate(10.3704 10.3704)"/>
</clipPath>
</defs>
</svg>
