<svg width="35" height="35" viewBox="0 0 35 35" fill="none" xmlns="http://www.w3.org/2000/svg">
<circle cx="17.5" cy="17.5" r="17.5" fill="#B976FC"/>
<g clip-path="url(#clip0_1995:4630)">
<path d="M18.2609 11.1595V9.89136C16.4843 9.89136 14.9651 11.1598 14.6474 12.9076L13.9274 16.866H12.2373V18.1341H13.6969L13.0181 21.8659C12.8102 23.0103 11.8154 23.8406 10.6522 23.8406V25.1087C12.4288 25.1087 13.948 23.8403 14.2657 22.0925L14.9856 18.1341H16.3587V16.866H15.2161L15.8949 13.1342C16.1028 11.9898 17.0977 11.1595 18.2609 11.1595Z" fill="white"/>
<path d="M18.8949 13.6957L18.3876 13.3152C18.3437 13.3739 17.3098 14.7838 17.3098 17.5C17.3098 20.2163 18.3437 21.6262 18.3876 21.6849L19.4019 20.9239C19.394 20.9132 18.5779 19.7616 18.5779 17.5C18.5779 15.239 19.3968 14.0838 19.405 14.072L18.8949 13.6957Z" fill="white"/>
<path d="M23.7771 14.0762C23.7853 14.0869 24.6014 15.2384 24.6014 17.5C24.6014 19.761 23.7825 20.9163 23.7743 20.9281L24.2844 21.3044L24.7917 21.6849C24.8361 21.6259 25.8695 20.2163 25.8695 17.5C25.8695 14.7838 24.8356 13.3739 24.7917 13.3152L23.7771 14.0762Z" fill="white"/>
<path d="M22.1865 15.542L21.4311 16.5809L20.6757 15.542L19.6503 16.2881L20.647 17.6587L19.6503 19.0293L20.6757 19.7754L21.4311 18.7366L22.1865 19.7754L23.2119 19.0293L22.2152 17.6587L23.2119 16.2881L22.1865 15.542Z" fill="white"/>
</g>
<defs>
<clipPath id="clip0_1995:4630">
<rect width="15.2174" height="15.2174" fill="white" transform="translate(10.6522 9.89136)"/>
</clipPath>
</defs>
</svg>
