<svg width="35" height="35" viewBox="0 0 35 35" fill="none" xmlns="http://www.w3.org/2000/svg">
<circle cx="17.5" cy="17.5" r="17.5" fill="#FFA05B"/>
<g clip-path="url(#clip0_1995:3502)">
<path d="M17.4997 9.89136C14.6679 9.89136 12.3638 12.1951 12.3638 15.0272V21.5808C12.3638 21.6806 12.4162 21.7736 12.5017 21.8249L15.355 23.5458C15.4004 23.5731 15.4514 23.587 15.5024 23.587C15.5506 23.587 15.5991 23.5748 15.6428 23.5502C15.7323 23.4995 15.7877 23.4048 15.7877 23.3017V17.0245C15.7877 16.8668 15.6601 16.7392 15.5024 16.7392C14.7158 16.7392 14.0758 16.0994 14.0758 15.3126V15.0272H15.8396C16.1402 15.0272 16.3904 15.2624 16.4091 15.5622L16.6443 19.325C16.6537 19.4754 16.7783 19.5925 16.9291 19.5925H18.0704C18.2211 19.5925 18.3457 19.4754 18.3551 19.325L18.5903 15.5622C18.6089 15.2624 18.8591 15.0272 19.1598 15.0272H20.9236V15.3126C20.9236 16.0994 20.2836 16.7392 19.497 16.7392C19.4212 16.7392 19.3487 16.7693 19.2952 16.8228C19.2417 16.8763 19.2116 16.9487 19.2116 17.0245L19.2119 23.3017C19.2119 23.4048 19.2673 23.4995 19.3571 23.5503C19.4465 23.6004 19.5566 23.5988 19.6446 23.5458L22.4976 21.8249C22.5831 21.7736 22.6355 21.6806 22.6355 21.5808V15.0272C22.6355 12.1951 20.3315 9.89136 17.4997 9.89136Z" fill="white"/>
</g>
<defs>
<clipPath id="clip0_1995:3502">
<rect width="13.6957" height="13.6957" fill="white" transform="translate(10.652 9.89136)"/>
</clipPath>
</defs>
</svg>
